HIERARCHY
ROOT Hips
{
  OFFSET 0 0 0
  CHANNELS 6 Xposition Yposition Zposition Zrotation Yrotation Xrotation
  JOINT LeftThigh
  {
    OFFSET 8.409438 0 -5.917753
    CHANNELS 3 Zrotation Yrotation Xrotation
    JOINT LeftLeg
    {
      OFFSET 0 0 -42.358652
      CHANNELS 3 Zrotation Yrotation Xrotation
      JOINT LeftFoot
      {
        OFFSET 0 0 -39.357303
        CHANNELS 3 Zrotation Yrotation Xrotation
      }
    }
  }
  JOINT RightThigh
  {
    OFFSET -8.409438 0 -5.917753
    CHANNELS 3 Zrotation Yrotation Xrotation
    JOINT RightLeg
    {
      OFFSET 0 0 -42.358652
      CHANNELS 3 Zrotation Yrotation Xrotation
      JOINT RightFoot
      {
        OFFSET 0 0 -39.357303
        CHANNELS 3 Zrotation Yrotation Xrotation
      }
    }
  }
  JOINT SpineLow
  {
    OFFSET 0 0 4.719101
    CHANNELS 3 Zrotation Yrotation Xrotation
    JOINT SpineMid
    {
      OFFSET 0 0 12.899191
      CHANNELS 3 Zrotation Yrotation Xrotation
      JOINT Chest
      {
        OFFSET 0 0 12.899191
        CHANNELS 3 Zrotation Yrotation Xrotation
        JOINT LeftShoulder
        {
          OFFSET 7.550562 1.41573 9.438202
          CHANNELS 3 Zrotation Yrotation Xrotation
          JOINT LeftArm
          {
            OFFSET 9.155056 0 4.247191
            CHANNELS 3 Zrotation Yrotation Xrotation
            JOINT LeftForearm
            {
              OFFSET 0 0 25.771955
              CHANNELS 3 Zrotation Yrotation Xrotation
              JOINT LeftHand
              {
                OFFSET 0 0 25.197169
                CHANNELS 3 Zrotation Yrotation Xrotation
              }
            }
          }
        }
        JOINT RightShoulder
        {
          OFFSET -7.550562 1.41573 9.438202
          CHANNELS 3 Zrotation Yrotation Xrotation
          JOINT RightArm
          {
            OFFSET -9.155056 0 4.247191
            CHANNELS 3 Zrotation Yrotation Xrotation
            JOINT RightForearm
            {
              OFFSET 0 0 -25.771955
              CHANNELS 3 Zrotation Yrotation Xrotation
              JOINT RightHand
              {
                OFFSET 0 0 -25.197169
                CHANNELS 3 Zrotation Yrotation Xrotation
              }
            }
          }
        }
        JOINT Neck
        {
          OFFSET 0 0 15.101124
          CHANNELS 3 Zrotation Yrotation Xrotation
          JOINT Head
          {
            OFFSET 0 0 11.325843
            CHANNELS 3 Zrotation Yrotation Xrotation
            End Site
            {
              OFFSET 0 0 14.157303
            }
          }
        }
      }
    }
  }
}
MOTION
Frames: 12
Frame Time: 0.0
0.0  93.25843  0.0  -2.222851  -2.532795  -92.220505  24.76866  -17.162648  -1.253639  -11.129823  1.551443  9.526889  2.095648  -0.495374  1.774385  -23.023342  2.805443  -4.661052  -7.345897  6.163695  4.238881  1.822756  0.226196  0.542641  2.106243  -2.146197  0.58667  5.718702  -5.91211  1.418452  5.718702  -5.91211  1.418452  -9.377525  31.536685  -5.263752  176.041446  34.973816  -168.946796  9.067937  -9.860529  95.975616  50.792089  17.956981  -6.483509  -4.643435  2.77391  24.203676  79.675966  42.134075  31.004127  -34.235392  -12.517032  -96.105616  70.907684  0.767372  13.348188  -10.960826  7.119999  3.12738  -8.246834  5.286171  2.471748  
0.0  93.25843  0.0  -2.280822  -1.961262  -92.052769  24.693076  -17.191965  -1.443789  -11.266539  1.562737  9.474261  2.084388  -0.519912  1.76839  -23.444924  2.765352  -4.759789  -7.653863  6.243456  4.316449  1.781497  0.227983  0.556284  2.196914  -2.124294  0.566781  5.969156  -5.852265  1.35775  5.969156  -5.852265  1.35775  -8.671818  31.36424  -4.921159  177.687188  34.336626  -169.889497  6.869903  -8.015993  98.897879  49.13889  17.721056  -7.054182  -4.472361  2.523681  24.4384  77.517335  42.232333  30.252585  -36.448834  -7.748247  -94.178376  73.112377  -1.271581  12.434052  -11.229071  7.004293  3.154173  -8.44783  5.19759  2.492957  
0.0  93.25843  0.0  -2.364194  -1.686367  -91.828142  23.94172  -17.01134  -2.032214  -10.750441  1.476807  9.913347  2.312331  -0.525697  1.918807  -23.610951  2.656491  -4.935606  -8.332099  6.319426  4.336125  1.948737  0.215946  0.613044  2.392929  -2.103391  0.567325  6.506364  -5.798816  1.343726  6.506364  -5.798816  1.343726  -8.45015  31.045619  -4.836519  179.44615  33.589416  -170.740364  4.849593  -4.679362  101.4466  49.597476  17.463292  -6.642963  -4.310998  2.211489  24.777321  74.577279  42.674366  28.97387  -38.684365  -1.947667  -92.002605  75.919917  -3.216451  10.938494  -11.743153  6.845539  3.079939  -8.831736  5.077425  2.440382  
0.0  93.25843  0.0  -2.417416  -1.634964  -91.730492  24.120147  -17.037368  -2.041377  -10.816335  1.413042  9.832505  2.308147  -0.522278  1.902583  -23.722122  2.508552  -5.062442  -8.509893  6.511817  4.525797  1.957923  0.246967  0.603954  2.581571  -2.078327  0.553051  7.024656  -5.732255  1.290562  7.024656  -5.732255  1.290562  -7.532208  30.666095  -4.36682  -178.88937  32.840276  -171.60243  3.423464  -2.236525  104.2943  48.975512  17.206769  -6.725092  -4.545022  2.068556  25.016942  72.853712  42.998866  28.108667  -40.858738  4.689736  -89.484373  79.16833  -5.011159  9.291187  -12.077929  6.687812  3.205527  -9.083616  4.955041  2.535308  
0.0  93.25843  0.0  -2.316057  -1.234408  -91.434807  22.678679  -16.546481  -2.57212  -10.263328  1.237596  10.201657  2.468337  -0.477452  1.990237  -24.265351  2.385546  -5.517936  -8.641734  6.78743  4.762575  1.965779  0.212769  0.635066  2.785293  -2.040395  0.517421  7.586087  -5.628096  1.179532  7.586087  -5.628096  1.179532  -6.936543  30.233332  -4.00798  -177.113016  32.141179  -172.385473  2.91859  -0.331255  107.14907  47.318823  16.672369  -7.436411  -3.330752  1.88226  26.42388  68.69342  44.762644  25.945358  -42.435784  11.925376  -86.434733  82.212665  -6.592654  7.688275  -12.694871  6.553925  3.27058  -9.546241  4.850229  2.588272  
0.0  93.25843  0.0  -2.377333  -1.606661  -91.407627  22.857963  -16.595141  -2.381382  -10.21457  1.160934  10.104905  2.545977  -0.464663  1.967506  -24.196466  2.122682  -5.714826  -8.656956  7.089052  5.084719  1.967418  0.256599  0.623413  3.044911  -2.031092  0.495591  8.299196  -5.603877  1.098645  8.299196  -5.603877  1.098645  -6.004349  29.851031  -3.384357  -174.916464  31.774849  -172.994957  3.12772  1.467478  109.871685  44.871278  15.756949  -8.779899  -3.99554  1.887664  26.640178  67.954468  45.964335  25.357779  -42.724614  19.576284  -82.562233  84.260035  -8.112653  6.541917  -13.090836  6.428632  3.506818  -9.845171  4.749206  2.767096  
0.0  93.25843  0.0  -2.270004  -1.573423  -91.084765  22.285784  -16.298223  -2.453388  -10.084744  1.08221  10.030434  2.612121  -0.438881  1.926063  -24.618691  1.911139  -6.307923  -8.52057  7.477576  5.455124  2.057665  0.228223  0.667837  3.293609  -1.949303  0.43714  8.985395  -5.376245  0.928596  8.985395  -5.376245  0.928596  -5.334437  29.190215  -2.691585  -172.546476  31.59345  -173.382855  3.869442  3.40793  112.43963  42.02133  14.147569  -10.639055  -4.880538  1.514183  26.683707  67.455972  47.727014  24.832615  -40.700863  26.942019  -77.18159  84.632319  -9.707792  6.61754  -13.65333  6.164045  3.742357  -10.268387  4.542395  2.944007  
0.0  93.25843  0.0  -2.36896  -2.352127  -91.029981  22.450872  -16.331192  -2.284133  -9.756354  0.995406  10.084935  2.764557  -0.425126  1.927482  -24.458711  1.546302  -6.603805  -8.387952  7.813992  5.887372  2.093284  0.273723  0.635216  3.637569  -1.932399  0.397516  9.930649  -5.327935  0.794607  9.930649  -5.327935  0.794607  -4.554489  28.792146  -1.61036  -169.879968  31.779156  -173.651092  5.149298  5.849881  114.823106  39.01955  11.101488  -12.81327  -5.391851  0.93685  26.747765  67.67543  49.979428  24.942103  -35.843704  32.875823  -69.569725  83.442021  -11.399908  7.992977  -14.136546  6.048279  4.121487  -10.63399  4.444015  3.230685  
0.0  93.25843  0.0  -2.388939  -2.998654  -90.897145  22.013889  -16.185153  -2.369092  -9.775348  0.954582  9.923717  3.494048  -0.352108  2.377777  -24.460714  1.281161  -7.015768  -8.57304  8.179694  6.2184  2.347557  0.287964  0.631415  3.866804  -1.897594  0.398388  10.558254  -5.235187  0.783867  10.558254  -5.235187  0.783867  -3.647849  28.48823  -0.906194  -166.94143  32.186884  -174.170004  6.74631  8.841514  117.016823  35.26442  6.111285  -15.065238  -5.271761  0.308556  26.494893  69.056714  52.681431  25.688178  -28.45354  36.19751  -59.746987  81.678881  -13.242577  9.874477  -14.283615  5.967502  4.43427  -10.747064  4.375181  3.464883  
0.0  93.25843  0.0  -2.42381  -4.155736  -90.800204  22.405283  -16.140974  -2.32605  -9.353533  0.919157  10.186405  3.622301  -0.326471  2.400731  -24.236842  0.881912  -7.448963  -8.24075  8.566762  6.755678  2.512388  0.331588  0.579358  4.056413  -1.907098  0.360251  11.080619  -5.256293  0.663001  11.08062  -5.256293  0.663001  -2.605928  28.307523  -0.367906  -164.188231  32.081762  -175.626117  8.043763  12.213224  118.745672  30.254495  -0.305412  -16.546451  -4.552904  -0.112021  26.73537  71.880685  55.705937  27.229584  -19.75195  36.57021  -48.610565  80.349106  -15.08914  11.107505  -14.031587  6.141829  5.04484  -10.56526  4.49382  3.923969  
0.0  93.25843  0.0  -2.424586  -5.206306  -90.799117  22.521425  -16.070858  -2.317206  -9.027217  0.882039  10.524446  3.870839  -0.272754  2.52238  -24.109077  0.600274  -7.859099  -7.861682  8.96094  7.326002  2.444803  0.303457  0.50842  4.10446  -1.947654  0.263746  11.220336  -5.350768  0.388828  11.220337  -5.350769  0.388828  -0.912828  27.949371  0.922797  -161.972064  30.731974  -177.43428  8.865782  16.182395  119.715278  23.944588  -7.286242  -16.045103  -3.225579  -0.708592  28.04966  76.697465  59.131606  30.380481  -11.329514  34.583765  -37.287959  80.350669  -16.815285  10.450324  -13.320511  6.576804  6.038954  -10.045729  4.804384  4.670781  
0.0  93.25843  0.0  -2.394825  -6.391415  -91.036103  22.860404  -16.127322  -2.037323  -8.782232  0.940302  10.912845  4.008399  -0.232227  2.545213  -23.903623  0.36026  -8.089893  -7.338884  9.308277  7.97346  2.620469  0.347014  0.478368  4.222647  -2.018828  0.229495  11.547846  -5.538922  0.273256  11.547846  -5.538922  0.273256  -0.202129  27.60665  2.015627  -160.317513  28.377804  -179.247201  8.781306  21.316011  119.555853  17.155585  -13.17917  -12.960209  -2.967893  -1.294651  29.546806  84.64793  62.272247  36.011176  -3.720396  31.283421  -25.855347  82.057383  -17.874588  6.88525  -12.838899  7.152841  6.922555  -9.699432  5.222925  5.338908  
